<?xml version="1.0" standalone="no"?>
<!DOCTYPE svg PUBLIC "-//W3C//DTD SVG 1.1//EN" 
  "http://www.w3.org/Graphics/SVG/1.1/DTD/svg11.dtd">
<svg width="128" height="128" viewBox="0 0 128 128"
     xmlns="http://www.w3.org/2000/svg" version="1.1">
<desc>, (Blender 4.5.8 LTS)</desc>
<polygon stroke="black" stroke-width="1" fill="rgb(204, 204, 204)" fill-opacity="0" points="74.000,0.500 107.250,2.250 128.500,0.250 " />
<polygon stroke="black" stroke-width="1" fill="rgb(204, 204, 204)" fill-opacity="0" points="55.000,0.500 74.000,0.500 0.500,0.250 " />
<polygon stroke="black" stroke-width="1" fill="rgb(204, 204, 204)" fill-opacity="0" points="55.000,0.500 0.500,0.250 21.500,2.250 " />
<polygon stroke="black" stroke-width="1" fill="rgb(204, 204, 204)" fill-opacity="0" points="11.250,59.000 0.500,51.250 0.500,67.000 " />
<polygon stroke="black" stroke-width="1" fill="rgb(204, 204, 204)" fill-opacity="0" points="0.500,67.000 9.500,75.750 11.250,59.000 " />
<polygon stroke="black" stroke-width="1" fill="rgb(204, 204, 204)" fill-opacity="0" points="117.500,59.000 119.500,75.750 128.500,67.000 " />
<polygon stroke="black" stroke-width="1" fill="rgb(204, 204, 204)" fill-opacity="0" points="128.500,67.000 128.500,51.250 117.500,59.000 " />
<polygon stroke="black" stroke-width="1" fill="rgb(204, 204, 204)" fill-opacity="0" points="69.750,115.750 69.750,111.500 56.500,111.500 " />
<polygon stroke="black" stroke-width="1" fill="rgb(204, 204, 204)" fill-opacity="0" points="56.500,111.500 56.750,115.750 69.750,115.750 " />
<polygon stroke="black" stroke-width="1" fill="rgb(204, 204, 204)" fill-opacity="0" points="56.500,111.500 69.750,111.500 67.750,109.250 " />
<polygon stroke="black" stroke-width="1" fill="rgb(204, 204, 204)" fill-opacity="0" points="61.000,109.250 56.500,111.500 67.750,109.250 " />
<polygon stroke="black" stroke-width="1" fill="rgb(204, 204, 204)" fill-opacity="0" points="43.000,105.500 36.750,113.750 56.750,115.750 " />
<polygon stroke="black" stroke-width="1" fill="rgb(204, 204, 204)" fill-opacity="0" points="56.500,111.500 43.000,105.500 56.750,115.750 " />
<polygon stroke="black" stroke-width="1" fill="rgb(204, 204, 204)" fill-opacity="0" points="56.750,115.750 36.750,113.750 44.750,127.500 " />
<polygon stroke="black" stroke-width="1" fill="rgb(204, 204, 204)" fill-opacity="0" points="84.750,104.250 69.750,111.500 69.750,115.750 " />
<polygon stroke="black" stroke-width="1" fill="rgb(204, 204, 204)" fill-opacity="0" points="90.000,113.250 84.750,104.250 69.750,115.750 " />
<polygon stroke="black" stroke-width="1" fill="rgb(204, 204, 204)" fill-opacity="0" points="90.000,113.250 69.750,115.750 83.500,127.500 " />
<polygon stroke="black" stroke-width="1" fill="rgb(204, 204, 204)" fill-opacity="0" points="27.750,88.000 20.250,82.250 28.250,112.250 " />
<polygon stroke="black" stroke-width="1" fill="rgb(204, 204, 204)" fill-opacity="0" points="36.750,113.750 27.750,88.000 28.250,112.250 " />
<polygon stroke="black" stroke-width="1" fill="rgb(204, 204, 204)" fill-opacity="0" points="20.250,82.250 27.750,88.000 22.750,60.500 " />
<polygon stroke="black" stroke-width="1" fill="rgb(204, 204, 204)" fill-opacity="0" points="101.000,88.000 90.000,113.250 102.000,112.500 " />
<polygon stroke="black" stroke-width="1" fill="rgb(204, 204, 204)" fill-opacity="0" points="108.500,82.250 101.000,88.000 102.000,112.500 " />
<polygon stroke="black" stroke-width="1" fill="rgb(204, 204, 204)" fill-opacity="0" points="101.000,88.000 108.500,82.250 106.000,60.500 " />
<polygon stroke="black" stroke-width="1" fill="rgb(204, 204, 204)" fill-opacity="0" points="36.750,113.750 30.750,127.500 44.750,127.500 " />
<polygon stroke="black" stroke-width="1" fill="rgb(204, 204, 204)" fill-opacity="0" points="83.500,127.500 96.750,127.500 90.000,113.250 " />
<polygon stroke="black" stroke-width="1" fill="rgb(204, 204, 204)" fill-opacity="0" points="56.750,115.750 56.500,127.500 70.000,127.500 " />
<polygon stroke="black" stroke-width="1" fill="rgb(204, 204, 204)" fill-opacity="0" points="69.750,115.750 56.750,115.750 70.000,127.500 " />
<polygon stroke="black" stroke-width="1" fill="rgb(204, 204, 204)" fill-opacity="0" points="6.250,5.000 21.500,2.250 0.500,0.250 " />
<polygon stroke="black" stroke-width="1" fill="rgb(204, 204, 204)" fill-opacity="0" points="122.500,5.000 134.250,5.000 128.500,0.250 " />
<polygon stroke="black" stroke-width="1" fill="rgb(204, 204, 204)" fill-opacity="0" points="128.500,0.250 107.250,2.250 122.500,5.000 " />
<polygon stroke="black" stroke-width="1" fill="rgb(204, 204, 204)" fill-opacity="0" points="134.250,5.000 122.500,5.000 128.500,13.500 " />
<polygon stroke="black" stroke-width="1" fill="rgb(204, 204, 204)" fill-opacity="0" points="14.000,111.250 9.500,75.750 0.500,108.250 " />
<polygon stroke="black" stroke-width="1" fill="rgb(204, 204, 204)" fill-opacity="0" points="14.000,111.250 15.250,127.500 28.250,112.250 " />
<polygon stroke="black" stroke-width="1" fill="rgb(204, 204, 204)" fill-opacity="0" points="62.750,73.000 64.500,68.750 63.000,68.500 " />
<polygon stroke="black" stroke-width="1" fill="rgb(204, 204, 204)" fill-opacity="0" points="64.500,58.500 62.250,57.500 63.000,68.500 " />
<polygon stroke="black" stroke-width="1" fill="rgb(204, 204, 204)" fill-opacity="0" points="22.750,60.500 14.750,37.750 11.250,59.000 " />
<polygon stroke="black" stroke-width="1" fill="rgb(204, 204, 204)" fill-opacity="0" points="13.500,24.500 11.750,13.000 3.750,23.750 " />
<polygon stroke="black" stroke-width="1" fill="rgb(204, 204, 204)" fill-opacity="0" points="13.500,24.500 14.750,37.750 23.750,24.000 " />
<polygon stroke="black" stroke-width="1" fill="rgb(204, 204, 204)" fill-opacity="0" points="35.250,26.750 36.500,14.500 23.750,24.000 " />
<polygon stroke="black" stroke-width="1" fill="rgb(204, 204, 204)" fill-opacity="0" points="35.250,26.750 38.000,40.000 50.250,30.250 " />
<polygon stroke="black" stroke-width="1" fill="rgb(204, 204, 204)" fill-opacity="0" points="60.000,89.000 56.750,66.250 53.750,86.000 " />
<polygon stroke="black" stroke-width="1" fill="rgb(204, 204, 204)" fill-opacity="0" points="57.750,55.250 58.250,46.250 50.000,52.750 " />
<polygon stroke="black" stroke-width="1" fill="rgb(204, 204, 204)" fill-opacity="0" points="57.750,55.250 56.750,66.250 62.250,57.500 " />
<polygon stroke="black" stroke-width="1" fill="rgb(204, 204, 204)" fill-opacity="0" points="58.000,32.000 57.500,19.250 50.250,30.250 " />
<polygon stroke="black" stroke-width="1" fill="rgb(204, 204, 204)" fill-opacity="0" points="58.000,32.000 58.250,46.250 64.500,35.250 " />
<polygon stroke="black" stroke-width="1" fill="rgb(204, 204, 204)" fill-opacity="0" points="6.250,5.000 11.750,13.000 24.750,6.250 " />
<polygon stroke="black" stroke-width="1" fill="rgb(204, 204, 204)" fill-opacity="0" points="57.500,19.250 64.500,12.000 56.250,9.500 " />
<polygon stroke="black" stroke-width="1" fill="rgb(204, 204, 204)" fill-opacity="0" points="53.750,86.000 36.000,73.750 47.250,98.000 " />
<polygon stroke="black" stroke-width="1" fill="rgb(204, 204, 204)" fill-opacity="0" points="36.000,73.750 36.000,50.250 22.750,60.500 " />
<polygon stroke="black" stroke-width="1" fill="rgb(204, 204, 204)" fill-opacity="0" points="50.000,52.750 38.000,40.000 36.000,50.250 " />
<polygon stroke="black" stroke-width="1" fill="rgb(204, 204, 204)" fill-opacity="0" points="47.250,98.000 43.000,105.500 56.500,111.500 " />
<polygon stroke="black" stroke-width="1" fill="rgb(204, 204, 204)" fill-opacity="0" points="44.250,5.500 24.750,6.250 36.500,14.500 " />
<polygon stroke="black" stroke-width="1" fill="rgb(204, 204, 204)" fill-opacity="0" points="44.250,5.500 56.250,9.500 55.000,0.500 " />
<polygon stroke="black" stroke-width="1" fill="rgb(204, 204, 204)" fill-opacity="0" points="64.500,108.750 61.750,105.750 61.000,109.250 " />
<polygon stroke="black" stroke-width="1" fill="rgb(204, 204, 204)" fill-opacity="0" points="0.500,108.250 9.500,75.750 0.500,67.000 " />
<polygon stroke="black" stroke-width="1" fill="rgb(204, 204, 204)" fill-opacity="0" points="0.500,127.500 14.000,111.250 0.500,108.250 " />
<polygon stroke="black" stroke-width="1" fill="rgb(204, 204, 204)" fill-opacity="0" points="14.000,111.250 20.250,82.250 9.500,75.750 " />
<polygon stroke="black" stroke-width="1" fill="rgb(204, 204, 204)" fill-opacity="0" points="28.250,112.250 15.250,127.500 30.750,127.500 " />
<polygon stroke="black" stroke-width="1" fill="rgb(204, 204, 204)" fill-opacity="0" points="20.250,82.250 14.000,111.250 28.250,112.250 " />
<polygon stroke="black" stroke-width="1" fill="rgb(204, 204, 204)" fill-opacity="0" points="14.000,111.250 0.500,127.500 15.250,127.500 " />
<polygon stroke="black" stroke-width="1" fill="rgb(204, 204, 204)" fill-opacity="0" points="11.250,59.000 9.500,75.750 20.250,82.250 " />
<polygon stroke="black" stroke-width="1" fill="rgb(204, 204, 204)" fill-opacity="0" points="61.000,69.000 62.750,73.000 63.000,68.500 " />
<polygon stroke="black" stroke-width="1" fill="rgb(204, 204, 204)" fill-opacity="0" points="63.000,68.500 62.250,57.500 61.000,69.000 " />
<polygon stroke="black" stroke-width="1" fill="rgb(204, 204, 204)" fill-opacity="0" points="64.500,68.750 64.500,58.500 63.000,68.500 " />
<polygon stroke="black" stroke-width="1" fill="rgb(204, 204, 204)" fill-opacity="0" points="64.500,58.500 64.500,48.000 62.250,57.500 " />
<polygon stroke="black" stroke-width="1" fill="rgb(204, 204, 204)" fill-opacity="0" points="30.750,127.500 36.750,113.750 28.250,112.250 " />
<polygon stroke="black" stroke-width="1" fill="rgb(204, 204, 204)" fill-opacity="0" points="27.750,88.000 36.750,113.750 43.000,105.500 " />
<polygon stroke="black" stroke-width="1" fill="rgb(204, 204, 204)" fill-opacity="0" points="11.250,59.000 14.750,37.750 6.750,38.500 " />
<polygon stroke="black" stroke-width="1" fill="rgb(204, 204, 204)" fill-opacity="0" points="20.250,82.250 22.750,60.500 11.250,59.000 " />
<polygon stroke="black" stroke-width="1" fill="rgb(204, 204, 204)" fill-opacity="0" points="22.750,60.500 23.000,36.500 14.750,37.750 " />
<polygon stroke="black" stroke-width="1" fill="rgb(204, 204, 204)" fill-opacity="0" points="3.750,23.750 11.750,13.000 0.500,13.500 " />
<polygon stroke="black" stroke-width="1" fill="rgb(204, 204, 204)" fill-opacity="0" points="6.750,38.500 13.500,24.500 3.750,23.750 " />
<polygon stroke="black" stroke-width="1" fill="rgb(204, 204, 204)" fill-opacity="0" points="13.500,24.500 24.500,13.500 11.750,13.000 " />
<polygon stroke="black" stroke-width="1" fill="rgb(204, 204, 204)" fill-opacity="0" points="23.750,24.000 14.750,37.750 23.000,36.500 " />
<polygon stroke="black" stroke-width="1" fill="rgb(204, 204, 204)" fill-opacity="0" points="24.500,13.500 13.500,24.500 23.750,24.000 " />
<polygon stroke="black" stroke-width="1" fill="rgb(204, 204, 204)" fill-opacity="0" points="13.500,24.500 6.750,38.500 14.750,37.750 " />
<polygon stroke="black" stroke-width="1" fill="rgb(204, 204, 204)" fill-opacity="0" points="23.750,24.000 36.500,14.500 24.500,13.500 " />
<polygon stroke="black" stroke-width="1" fill="rgb(204, 204, 204)" fill-opacity="0" points="23.000,36.500 35.250,26.750 23.750,24.000 " />
<polygon stroke="black" stroke-width="1" fill="rgb(204, 204, 204)" fill-opacity="0" points="35.250,26.750 49.250,17.500 36.500,14.500 " />
<polygon stroke="black" stroke-width="1" fill="rgb(204, 204, 204)" fill-opacity="0" points="50.250,30.250 38.000,40.000 51.250,44.250 " />
<polygon stroke="black" stroke-width="1" fill="rgb(204, 204, 204)" fill-opacity="0" points="49.250,17.500 35.250,26.750 50.250,30.250 " />
<polygon stroke="black" stroke-width="1" fill="rgb(204, 204, 204)" fill-opacity="0" points="35.250,26.750 23.000,36.500 38.000,40.000 " />
<polygon stroke="black" stroke-width="1" fill="rgb(204, 204, 204)" fill-opacity="0" points="53.750,86.000 56.750,66.250 50.500,63.250 " />
<polygon stroke="black" stroke-width="1" fill="rgb(204, 204, 204)" fill-opacity="0" points="57.750,106.250 60.000,89.000 53.750,86.000 " />
<polygon stroke="black" stroke-width="1" fill="rgb(204, 204, 204)" fill-opacity="0" points="60.000,89.000 61.000,69.000 56.750,66.250 " />
<polygon stroke="black" stroke-width="1" fill="rgb(204, 204, 204)" fill-opacity="0" points="61.750,105.750 64.500,90.000 60.000,89.000 " />
<polygon stroke="black" stroke-width="1" fill="rgb(204, 204, 204)" fill-opacity="0" points="62.750,73.000 61.000,69.000 60.000,89.000 " />
<polygon stroke="black" stroke-width="1" fill="rgb(204, 204, 204)" fill-opacity="0" points="64.500,90.000 62.750,73.000 60.000,89.000 " />
<polygon stroke="black" stroke-width="1" fill="rgb(204, 204, 204)" fill-opacity="0" points="60.000,89.000 57.750,106.250 61.750,105.750 " />
<polygon stroke="black" stroke-width="1" fill="rgb(204, 204, 204)" fill-opacity="0" points="50.000,52.750 58.250,46.250 51.250,44.250 " />
<polygon stroke="black" stroke-width="1" fill="rgb(204, 204, 204)" fill-opacity="0" points="50.500,63.250 57.750,55.250 50.000,52.750 " />
<polygon stroke="black" stroke-width="1" fill="rgb(204, 204, 204)" fill-opacity="0" points="57.750,55.250 64.500,48.000 58.250,46.250 " />
<polygon stroke="black" stroke-width="1" fill="rgb(204, 204, 204)" fill-opacity="0" points="62.250,57.500 56.750,66.250 61.000,69.000 " />
<polygon stroke="black" stroke-width="1" fill="rgb(204, 204, 204)" fill-opacity="0" points="64.500,48.000 57.750,55.250 62.250,57.500 " />
<polygon stroke="black" stroke-width="1" fill="rgb(204, 204, 204)" fill-opacity="0" points="57.750,55.250 50.500,63.250 56.750,66.250 " />
<polygon stroke="black" stroke-width="1" fill="rgb(204, 204, 204)" fill-opacity="0" points="50.250,30.250 57.500,19.250 49.250,17.500 " />
<polygon stroke="black" stroke-width="1" fill="rgb(204, 204, 204)" fill-opacity="0" points="51.250,44.250 58.000,32.000 50.250,30.250 " />
<polygon stroke="black" stroke-width="1" fill="rgb(204, 204, 204)" fill-opacity="0" points="58.000,32.000 64.500,21.250 57.500,19.250 " />
<polygon stroke="black" stroke-width="1" fill="rgb(204, 204, 204)" fill-opacity="0" points="64.500,35.250 58.250,46.250 64.500,48.000 " />
<polygon stroke="black" stroke-width="1" fill="rgb(204, 204, 204)" fill-opacity="0" points="64.500,21.250 58.000,32.000 64.500,35.250 " />
<polygon stroke="black" stroke-width="1" fill="rgb(204, 204, 204)" fill-opacity="0" points="58.000,32.000 51.250,44.250 58.250,46.250 " />
<polygon stroke="black" stroke-width="1" fill="rgb(204, 204, 204)" fill-opacity="0" points="24.750,6.250 11.750,13.000 24.500,13.500 " />
<polygon stroke="black" stroke-width="1" fill="rgb(204, 204, 204)" fill-opacity="0" points="21.500,2.250 6.250,5.000 24.750,6.250 " />
<polygon stroke="black" stroke-width="1" fill="rgb(204, 204, 204)" fill-opacity="0" points="6.250,5.000 0.500,13.500 11.750,13.000 " />
<polygon stroke="black" stroke-width="1" fill="rgb(204, 204, 204)" fill-opacity="0" points="56.250,9.500 64.500,12.000 64.500,4.000 " />
<polygon stroke="black" stroke-width="1" fill="rgb(204, 204, 204)" fill-opacity="0" points="49.250,17.500 57.500,19.250 56.250,9.500 " />
<polygon stroke="black" stroke-width="1" fill="rgb(204, 204, 204)" fill-opacity="0" points="57.500,19.250 64.500,21.250 64.500,12.000 " />
<polygon stroke="black" stroke-width="1" fill="rgb(204, 204, 204)" fill-opacity="0" points="47.250,98.000 36.000,73.750 27.750,88.000 " />
<polygon stroke="black" stroke-width="1" fill="rgb(204, 204, 204)" fill-opacity="0" points="57.750,106.250 53.750,86.000 47.250,98.000 " />
<polygon stroke="black" stroke-width="1" fill="rgb(204, 204, 204)" fill-opacity="0" points="53.750,86.000 50.500,63.250 36.000,73.750 " />
<polygon stroke="black" stroke-width="1" fill="rgb(204, 204, 204)" fill-opacity="0" points="22.750,60.500 36.000,50.250 23.000,36.500 " />
<polygon stroke="black" stroke-width="1" fill="rgb(204, 204, 204)" fill-opacity="0" points="27.750,88.000 36.000,73.750 22.750,60.500 " />
<polygon stroke="black" stroke-width="1" fill="rgb(204, 204, 204)" fill-opacity="0" points="36.000,73.750 50.500,63.250 36.000,50.250 " />
<polygon stroke="black" stroke-width="1" fill="rgb(204, 204, 204)" fill-opacity="0" points="36.000,50.250 38.000,40.000 23.000,36.500 " />
<polygon stroke="black" stroke-width="1" fill="rgb(204, 204, 204)" fill-opacity="0" points="50.500,63.250 50.000,52.750 36.000,50.250 " />
<polygon stroke="black" stroke-width="1" fill="rgb(204, 204, 204)" fill-opacity="0" points="50.000,52.750 51.250,44.250 38.000,40.000 " />
<polygon stroke="black" stroke-width="1" fill="rgb(204, 204, 204)" fill-opacity="0" points="57.750,106.250 47.250,98.000 56.500,111.500 " />
<polygon stroke="black" stroke-width="1" fill="rgb(204, 204, 204)" fill-opacity="0" points="47.250,98.000 27.750,88.000 43.000,105.500 " />
<polygon stroke="black" stroke-width="1" fill="rgb(204, 204, 204)" fill-opacity="0" points="56.500,127.500 56.750,115.750 44.750,127.500 " />
<polygon stroke="black" stroke-width="1" fill="rgb(204, 204, 204)" fill-opacity="0" points="36.500,14.500 24.750,6.250 24.500,13.500 " />
<polygon stroke="black" stroke-width="1" fill="rgb(204, 204, 204)" fill-opacity="0" points="49.250,17.500 44.250,5.500 36.500,14.500 " />
<polygon stroke="black" stroke-width="1" fill="rgb(204, 204, 204)" fill-opacity="0" points="44.250,5.500 21.500,2.250 24.750,6.250 " />
<polygon stroke="black" stroke-width="1" fill="rgb(204, 204, 204)" fill-opacity="0" points="55.000,0.500 56.250,9.500 64.500,4.000 " />
<polygon stroke="black" stroke-width="1" fill="rgb(204, 204, 204)" fill-opacity="0" points="21.500,2.250 44.250,5.500 55.000,0.500 " />
<polygon stroke="black" stroke-width="1" fill="rgb(204, 204, 204)" fill-opacity="0" points="44.250,5.500 49.250,17.500 56.250,9.500 " />
<polygon stroke="black" stroke-width="1" fill="rgb(204, 204, 204)" fill-opacity="0" points="57.750,106.250 56.500,111.500 61.000,109.250 " />
<polygon stroke="black" stroke-width="1" fill="rgb(204, 204, 204)" fill-opacity="0" points="61.000,109.250 61.750,105.750 57.750,106.250 " />
<polygon stroke="black" stroke-width="1" fill="rgb(204, 204, 204)" fill-opacity="0" points="0.500,51.250 11.250,59.000 6.750,38.500 " />
<polygon stroke="black" stroke-width="1" fill="rgb(204, 204, 204)" fill-opacity="0" points="6.750,38.500 0.500,38.500 0.500,51.250 " />
<polygon stroke="black" stroke-width="1" fill="rgb(204, 204, 204)" fill-opacity="0" points="0.500,38.500 6.750,38.500 3.750,23.750 " />
<polygon stroke="black" stroke-width="1" fill="rgb(204, 204, 204)" fill-opacity="0" points="128.500,108.250 119.500,75.750 115.750,111.750 " />
<polygon stroke="black" stroke-width="1" fill="rgb(204, 204, 204)" fill-opacity="0" points="102.000,112.500 114.000,127.500 115.750,111.750 " />
<polygon stroke="black" stroke-width="1" fill="rgb(204, 204, 204)" fill-opacity="0" points="65.750,68.500 64.500,68.750 66.250,73.000 " />
<polygon stroke="black" stroke-width="1" fill="rgb(204, 204, 204)" fill-opacity="0" points="65.750,68.500 66.500,57.500 64.500,58.500 " />
<polygon stroke="black" stroke-width="1" fill="rgb(204, 204, 204)" fill-opacity="0" points="117.500,59.000 114.000,37.750 106.000,60.500 " />
<polygon stroke="black" stroke-width="1" fill="rgb(204, 204, 204)" fill-opacity="0" points="125.000,23.750 117.250,13.000 115.250,24.500 " />
<polygon stroke="black" stroke-width="1" fill="rgb(204, 204, 204)" fill-opacity="0" points="105.000,24.000 114.000,37.750 115.250,24.500 " />
<polygon stroke="black" stroke-width="1" fill="rgb(204, 204, 204)" fill-opacity="0" points="105.000,24.000 92.500,14.500 93.500,26.750 " />
<polygon stroke="black" stroke-width="1" fill="rgb(204, 204, 204)" fill-opacity="0" points="78.500,30.250 90.750,40.000 93.500,26.750 " />
<polygon stroke="black" stroke-width="1" fill="rgb(204, 204, 204)" fill-opacity="0" points="75.000,86.000 72.000,66.250 68.750,89.000 " />
<polygon stroke="black" stroke-width="1" fill="rgb(204, 204, 204)" fill-opacity="0" points="78.750,52.750 70.500,46.250 71.000,55.250 " />
<polygon stroke="black" stroke-width="1" fill="rgb(204, 204, 204)" fill-opacity="0" points="66.500,57.500 72.000,66.250 71.000,55.250 " />
<polygon stroke="black" stroke-width="1" fill="rgb(204, 204, 204)" fill-opacity="0" points="78.500,30.250 71.250,19.250 70.750,32.000 " />
<polygon stroke="black" stroke-width="1" fill="rgb(204, 204, 204)" fill-opacity="0" points="64.500,35.250 70.500,46.250 70.750,32.000 " />
<polygon stroke="black" stroke-width="1" fill="rgb(204, 204, 204)" fill-opacity="0" points="104.000,6.250 117.250,13.000 122.500,5.000 " />
<polygon stroke="black" stroke-width="1" fill="rgb(204, 204, 204)" fill-opacity="0" points="72.500,9.500 64.500,12.000 71.250,19.250 " />
<polygon stroke="black" stroke-width="1" fill="rgb(204, 204, 204)" fill-opacity="0" points="81.750,98.000 92.750,73.750 75.000,86.000 " />
<polygon stroke="black" stroke-width="1" fill="rgb(204, 204, 204)" fill-opacity="0" points="106.000,60.500 93.000,50.250 92.750,73.750 " />
<polygon stroke="black" stroke-width="1" fill="rgb(204, 204, 204)" fill-opacity="0" points="93.000,50.250 90.750,40.000 78.750,52.750 " />
<polygon stroke="black" stroke-width="1" fill="rgb(204, 204, 204)" fill-opacity="0" points="69.750,111.500 84.750,104.250 81.750,98.000 " />
<polygon stroke="black" stroke-width="1" fill="rgb(204, 204, 204)" fill-opacity="0" points="92.500,14.500 104.000,6.250 84.500,5.500 " />
<polygon stroke="black" stroke-width="1" fill="rgb(204, 204, 204)" fill-opacity="0" points="74.000,0.500 72.500,9.500 84.500,5.500 " />
<polygon stroke="black" stroke-width="1" fill="rgb(204, 204, 204)" fill-opacity="0" points="67.750,109.250 67.000,105.750 64.500,108.750 " />
<polygon stroke="black" stroke-width="1" fill="rgb(204, 204, 204)" fill-opacity="0" points="128.500,67.000 119.500,75.750 128.500,108.250 " />
<polygon stroke="black" stroke-width="1" fill="rgb(204, 204, 204)" fill-opacity="0" points="128.500,108.250 115.750,111.750 128.500,127.500 " />
<polygon stroke="black" stroke-width="1" fill="rgb(204, 204, 204)" fill-opacity="0" points="119.500,75.750 108.500,82.250 115.750,111.750 " />
<polygon stroke="black" stroke-width="1" fill="rgb(204, 204, 204)" fill-opacity="0" points="96.750,127.500 114.000,127.500 102.000,112.500 " />
<polygon stroke="black" stroke-width="1" fill="rgb(204, 204, 204)" fill-opacity="0" points="102.000,112.500 115.750,111.750 108.500,82.250 " />
<polygon stroke="black" stroke-width="1" fill="rgb(204, 204, 204)" fill-opacity="0" points="114.000,127.500 128.500,127.500 115.750,111.750 " />
<polygon stroke="black" stroke-width="1" fill="rgb(204, 204, 204)" fill-opacity="0" points="108.500,82.250 119.500,75.750 117.500,59.000 " />
<polygon stroke="black" stroke-width="1" fill="rgb(204, 204, 204)" fill-opacity="0" points="66.250,73.000 62.750,73.000 64.500,90.000 " />
<polygon stroke="black" stroke-width="1" fill="rgb(204, 204, 204)" fill-opacity="0" points="65.750,68.500 66.250,73.000 68.000,69.000 " />
<polygon stroke="black" stroke-width="1" fill="rgb(204, 204, 204)" fill-opacity="0" points="62.750,73.000 66.250,73.000 64.500,68.750 " />
<polygon stroke="black" stroke-width="1" fill="rgb(204, 204, 204)" fill-opacity="0" points="68.000,69.000 66.500,57.500 65.750,68.500 " />
<polygon stroke="black" stroke-width="1" fill="rgb(204, 204, 204)" fill-opacity="0" points="65.750,68.500 64.500,58.500 64.500,68.750 " />
<polygon stroke="black" stroke-width="1" fill="rgb(204, 204, 204)" fill-opacity="0" points="66.500,57.500 64.500,48.000 64.500,58.500 " />
<polygon stroke="black" stroke-width="1" fill="rgb(204, 204, 204)" fill-opacity="0" points="102.000,112.500 90.000,113.250 96.750,127.500 " />
<polygon stroke="black" stroke-width="1" fill="rgb(204, 204, 204)" fill-opacity="0" points="84.750,104.250 90.000,113.250 101.000,88.000 " />
<polygon stroke="black" stroke-width="1" fill="rgb(204, 204, 204)" fill-opacity="0" points="122.000,38.500 114.000,37.750 117.500,59.000 " />
<polygon stroke="black" stroke-width="1" fill="rgb(204, 204, 204)" fill-opacity="0" points="117.500,59.000 106.000,60.500 108.500,82.250 " />
<polygon stroke="black" stroke-width="1" fill="rgb(204, 204, 204)" fill-opacity="0" points="114.000,37.750 106.000,36.500 106.000,60.500 " />
<polygon stroke="black" stroke-width="1" fill="rgb(204, 204, 204)" fill-opacity="0" points="128.500,13.500 117.250,13.000 125.000,23.750 " />
<polygon stroke="black" stroke-width="1" fill="rgb(204, 204, 204)" fill-opacity="0" points="125.000,23.750 115.250,24.500 122.000,38.500 " />
<polygon stroke="black" stroke-width="1" fill="rgb(204, 204, 204)" fill-opacity="0" points="117.250,13.000 104.250,13.500 115.250,24.500 " />
<polygon stroke="black" stroke-width="1" fill="rgb(204, 204, 204)" fill-opacity="0" points="106.000,36.500 114.000,37.750 105.000,24.000 " />
<polygon stroke="black" stroke-width="1" fill="rgb(204, 204, 204)" fill-opacity="0" points="105.000,24.000 115.250,24.500 104.250,13.500 " />
<polygon stroke="black" stroke-width="1" fill="rgb(204, 204, 204)" fill-opacity="0" points="114.000,37.750 122.000,38.500 115.250,24.500 " />
<polygon stroke="black" stroke-width="1" fill="rgb(204, 204, 204)" fill-opacity="0" points="104.250,13.500 92.500,14.500 105.000,24.000 " />
<polygon stroke="black" stroke-width="1" fill="rgb(204, 204, 204)" fill-opacity="0" points="105.000,24.000 93.500,26.750 106.000,36.500 " />
<polygon stroke="black" stroke-width="1" fill="rgb(204, 204, 204)" fill-opacity="0" points="92.500,14.500 79.500,17.500 93.500,26.750 " />
<polygon stroke="black" stroke-width="1" fill="rgb(204, 204, 204)" fill-opacity="0" points="77.750,44.250 90.750,40.000 78.500,30.250 " />
<polygon stroke="black" stroke-width="1" fill="rgb(204, 204, 204)" fill-opacity="0" points="78.500,30.250 93.500,26.750 79.500,17.500 " />
<polygon stroke="black" stroke-width="1" fill="rgb(204, 204, 204)" fill-opacity="0" points="90.750,40.000 106.000,36.500 93.500,26.750 " />
<polygon stroke="black" stroke-width="1" fill="rgb(204, 204, 204)" fill-opacity="0" points="78.250,63.250 72.000,66.250 75.000,86.000 " />
<polygon stroke="black" stroke-width="1" fill="rgb(204, 204, 204)" fill-opacity="0" points="75.000,86.000 68.750,89.000 71.000,106.250 " />
<polygon stroke="black" stroke-width="1" fill="rgb(204, 204, 204)" fill-opacity="0" points="72.000,66.250 68.000,69.000 68.750,89.000 " />
<polygon stroke="black" stroke-width="1" fill="rgb(204, 204, 204)" fill-opacity="0" points="61.750,105.750 67.000,105.750 64.500,90.000 " />
<polygon stroke="black" stroke-width="1" fill="rgb(204, 204, 204)" fill-opacity="0" points="64.500,90.000 67.000,105.750 68.750,89.000 " />
<polygon stroke="black" stroke-width="1" fill="rgb(204, 204, 204)" fill-opacity="0" points="66.250,73.000 64.500,90.000 68.750,89.000 " />
<polygon stroke="black" stroke-width="1" fill="rgb(204, 204, 204)" fill-opacity="0" points="68.000,69.000 66.250,73.000 68.750,89.000 " />
<polygon stroke="black" stroke-width="1" fill="rgb(204, 204, 204)" fill-opacity="0" points="67.000,105.750 71.000,106.250 68.750,89.000 " />
<polygon stroke="black" stroke-width="1" fill="rgb(204, 204, 204)" fill-opacity="0" points="77.750,44.250 70.500,46.250 78.750,52.750 " />
<polygon stroke="black" stroke-width="1" fill="rgb(204, 204, 204)" fill-opacity="0" points="78.750,52.750 71.000,55.250 78.250,63.250 " />
<polygon stroke="black" stroke-width="1" fill="rgb(204, 204, 204)" fill-opacity="0" points="70.500,46.250 64.500,48.000 71.000,55.250 " />
<polygon stroke="black" stroke-width="1" fill="rgb(204, 204, 204)" fill-opacity="0" points="68.000,69.000 72.000,66.250 66.500,57.500 " />
<polygon stroke="black" stroke-width="1" fill="rgb(204, 204, 204)" fill-opacity="0" points="66.500,57.500 71.000,55.250 64.500,48.000 " />
<polygon stroke="black" stroke-width="1" fill="rgb(204, 204, 204)" fill-opacity="0" points="72.000,66.250 78.250,63.250 71.000,55.250 " />
<polygon stroke="black" stroke-width="1" fill="rgb(204, 204, 204)" fill-opacity="0" points="79.500,17.500 71.250,19.250 78.500,30.250 " />
<polygon stroke="black" stroke-width="1" fill="rgb(204, 204, 204)" fill-opacity="0" points="78.500,30.250 70.750,32.000 77.750,44.250 " />
<polygon stroke="black" stroke-width="1" fill="rgb(204, 204, 204)" fill-opacity="0" points="71.250,19.250 64.500,21.250 70.750,32.000 " />
<polygon stroke="black" stroke-width="1" fill="rgb(204, 204, 204)" fill-opacity="0" points="64.500,48.000 70.500,46.250 64.500,35.250 " />
<polygon stroke="black" stroke-width="1" fill="rgb(204, 204, 204)" fill-opacity="0" points="64.500,35.250 70.750,32.000 64.500,21.250 " />
<polygon stroke="black" stroke-width="1" fill="rgb(204, 204, 204)" fill-opacity="0" points="70.500,46.250 77.750,44.250 70.750,32.000 " />
<polygon stroke="black" stroke-width="1" fill="rgb(204, 204, 204)" fill-opacity="0" points="104.250,13.500 117.250,13.000 104.000,6.250 " />
<polygon stroke="black" stroke-width="1" fill="rgb(204, 204, 204)" fill-opacity="0" points="104.000,6.250 122.500,5.000 107.250,2.250 " />
<polygon stroke="black" stroke-width="1" fill="rgb(204, 204, 204)" fill-opacity="0" points="117.250,13.000 128.500,13.500 122.500,5.000 " />
<polygon stroke="black" stroke-width="1" fill="rgb(204, 204, 204)" fill-opacity="0" points="64.500,4.000 64.500,12.000 72.500,9.500 " />
<polygon stroke="black" stroke-width="1" fill="rgb(204, 204, 204)" fill-opacity="0" points="72.500,9.500 71.250,19.250 79.500,17.500 " />
<polygon stroke="black" stroke-width="1" fill="rgb(204, 204, 204)" fill-opacity="0" points="64.500,12.000 64.500,21.250 71.250,19.250 " />
<polygon stroke="black" stroke-width="1" fill="rgb(204, 204, 204)" fill-opacity="0" points="101.000,88.000 92.750,73.750 81.750,98.000 " />
<polygon stroke="black" stroke-width="1" fill="rgb(204, 204, 204)" fill-opacity="0" points="81.750,98.000 75.000,86.000 71.000,106.250 " />
<polygon stroke="black" stroke-width="1" fill="rgb(204, 204, 204)" fill-opacity="0" points="92.750,73.750 78.250,63.250 75.000,86.000 " />
<polygon stroke="black" stroke-width="1" fill="rgb(204, 204, 204)" fill-opacity="0" points="106.000,36.500 93.000,50.250 106.000,60.500 " />
<polygon stroke="black" stroke-width="1" fill="rgb(204, 204, 204)" fill-opacity="0" points="106.000,60.500 92.750,73.750 101.000,88.000 " />
<polygon stroke="black" stroke-width="1" fill="rgb(204, 204, 204)" fill-opacity="0" points="93.000,50.250 78.250,63.250 92.750,73.750 " />
<polygon stroke="black" stroke-width="1" fill="rgb(204, 204, 204)" fill-opacity="0" points="106.000,36.500 90.750,40.000 93.000,50.250 " />
<polygon stroke="black" stroke-width="1" fill="rgb(204, 204, 204)" fill-opacity="0" points="93.000,50.250 78.750,52.750 78.250,63.250 " />
<polygon stroke="black" stroke-width="1" fill="rgb(204, 204, 204)" fill-opacity="0" points="90.750,40.000 77.750,44.250 78.750,52.750 " />
<polygon stroke="black" stroke-width="1" fill="rgb(204, 204, 204)" fill-opacity="0" points="69.750,111.500 81.750,98.000 71.000,106.250 " />
<polygon stroke="black" stroke-width="1" fill="rgb(204, 204, 204)" fill-opacity="0" points="84.750,104.250 101.000,88.000 81.750,98.000 " />
<polygon stroke="black" stroke-width="1" fill="rgb(204, 204, 204)" fill-opacity="0" points="83.500,127.500 69.750,115.750 70.000,127.500 " />
<polygon stroke="black" stroke-width="1" fill="rgb(204, 204, 204)" fill-opacity="0" points="104.250,13.500 104.000,6.250 92.500,14.500 " />
<polygon stroke="black" stroke-width="1" fill="rgb(204, 204, 204)" fill-opacity="0" points="92.500,14.500 84.500,5.500 79.500,17.500 " />
<polygon stroke="black" stroke-width="1" fill="rgb(204, 204, 204)" fill-opacity="0" points="104.000,6.250 107.250,2.250 84.500,5.500 " />
<polygon stroke="black" stroke-width="1" fill="rgb(204, 204, 204)" fill-opacity="0" points="64.500,4.000 72.500,9.500 74.000,0.500 " />
<polygon stroke="black" stroke-width="1" fill="rgb(204, 204, 204)" fill-opacity="0" points="74.000,0.500 84.500,5.500 107.250,2.250 " />
<polygon stroke="black" stroke-width="1" fill="rgb(204, 204, 204)" fill-opacity="0" points="72.500,9.500 79.500,17.500 84.500,5.500 " />
<polygon stroke="black" stroke-width="1" fill="rgb(204, 204, 204)" fill-opacity="0" points="67.750,109.250 69.750,111.500 71.000,106.250 " />
<polygon stroke="black" stroke-width="1" fill="rgb(204, 204, 204)" fill-opacity="0" points="71.000,106.250 67.000,105.750 67.750,109.250 " />
<polygon stroke="black" stroke-width="1" fill="rgb(204, 204, 204)" fill-opacity="0" points="67.750,109.250 64.500,108.750 61.000,109.250 " />
<polygon stroke="black" stroke-width="1" fill="rgb(204, 204, 204)" fill-opacity="0" points="67.000,105.750 61.750,105.750 64.500,108.750 " />
<polygon stroke="black" stroke-width="1" fill="rgb(204, 204, 204)" fill-opacity="0" points="74.000,0.500 55.000,0.500 64.500,4.000 " />
<polygon stroke="black" stroke-width="1" fill="rgb(204, 204, 204)" fill-opacity="0" points="117.500,59.000 128.500,51.250 122.000,38.500 " />
<polygon stroke="black" stroke-width="1" fill="rgb(204, 204, 204)" fill-opacity="0" points="128.500,51.250 128.500,38.500 122.000,38.500 " />
<polygon stroke="black" stroke-width="1" fill="rgb(204, 204, 204)" fill-opacity="0" points="131.750,23.750 125.000,23.750 128.500,38.500 " />
<polygon stroke="black" stroke-width="1" fill="rgb(204, 204, 204)" fill-opacity="0" points="122.000,38.500 128.500,38.500 125.000,23.750 " />
<polygon stroke="black" stroke-width="1" fill="rgb(204, 204, 204)" fill-opacity="0" points="125.000,23.750 131.750,23.750 128.500,13.500 " />

</svg>
