<?xml version="1.0" standalone="no"?>
<!DOCTYPE svg PUBLIC "-//W3C//DTD SVG 1.1//EN"
  "http://www.w3.org/Graphics/SVG/1.1/DTD/svg11.dtd">
<svg width="128" height="64" viewBox="0 0 128 64"
     xmlns="http://www.w3.org/2000/svg" version="1.1">
<desc>, (Blender 4.5.8 LTS)</desc>
<polygon stroke="black" stroke-width="1" fill="rgb(204, 204, 204)" fill-opacity="0" points="78.500,0.500 58.500,0.500 63.500,2.500 " />
<polygon stroke="black" stroke-width="1" fill="rgb(204, 204, 204)" fill-opacity="0" points="83.500,1.500 78.500,0.500 63.500,2.500 " />
<polygon stroke="black" stroke-width="1" fill="rgb(204, 204, 204)" fill-opacity="0" points="83.500,1.500 63.500,2.500 68.500,3.500 " />
<polygon stroke="black" stroke-width="1" fill="rgb(204, 204, 204)" fill-opacity="0" points="3.500,26.500 0.500,25.500 0.500,32.500 " />
<polygon stroke="black" stroke-width="1" fill="rgb(204, 204, 204)" fill-opacity="0" points="0.500,32.500 4.500,38.500 3.500,26.500 " />
<polygon stroke="black" stroke-width="1" fill="rgb(204, 204, 204)" fill-opacity="0" points="58.500,27.500 59.500,35.500 62.500,33.500 " />
<polygon stroke="black" stroke-width="1" fill="rgb(204, 204, 204)" fill-opacity="0" points="62.500,33.500 62.500,26.500 58.500,27.500 " />
<polygon stroke="black" stroke-width="1" fill="rgb(204, 204, 204)" fill-opacity="0" points="40.500,58.500 40.500,54.500 24.500,54.500 " />
<polygon stroke="black" stroke-width="1" fill="rgb(204, 204, 204)" fill-opacity="0" points="24.500,54.500 24.500,58.500 40.500,58.500 " />
<polygon stroke="black" stroke-width="1" fill="rgb(204, 204, 204)" fill-opacity="0" points="25.500,59.500 36.500,59.500 34.500,55.500 " />
<polygon stroke="black" stroke-width="1" fill="rgb(204, 204, 204)" fill-opacity="0" points="27.500,54.500 25.500,59.500 34.500,55.500 " />
<polygon stroke="black" stroke-width="1" fill="rgb(204, 204, 204)" fill-opacity="0" points="20.500,53.500 14.500,58.500 24.500,58.500 " />
<polygon stroke="black" stroke-width="1" fill="rgb(204, 204, 204)" fill-opacity="0" points="24.500,54.500 20.500,53.500 24.500,58.500 " />
<polygon stroke="black" stroke-width="1" fill="rgb(204, 204, 204)" fill-opacity="0" points="24.500,58.500 14.500,58.500 17.500,62.500 " />
<polygon stroke="black" stroke-width="1" fill="rgb(204, 204, 204)" fill-opacity="0" points="44.500,52.500 40.500,54.500 40.500,58.500 " />
<polygon stroke="black" stroke-width="1" fill="rgb(204, 204, 204)" fill-opacity="0" points="48.500,58.500 44.500,52.500 40.500,58.500 " />
<polygon stroke="black" stroke-width="1" fill="rgb(204, 204, 204)" fill-opacity="0" points="48.500,58.500 40.500,58.500 46.500,62.500 " />
<polygon stroke="black" stroke-width="1" fill="rgb(204, 204, 204)" fill-opacity="0" points="16.500,49.500 10.500,42.500 10.500,54.500 " />
<polygon stroke="black" stroke-width="1" fill="rgb(204, 204, 204)" fill-opacity="0" points="14.500,58.500 16.500,49.500 10.500,54.500 " />
<polygon stroke="black" stroke-width="1" fill="rgb(204, 204, 204)" fill-opacity="0" points="6.500,35.500 8.500,37.500 7.500,26.500 " />
<polygon stroke="black" stroke-width="1" fill="rgb(204, 204, 204)" fill-opacity="0" points="47.500,48.500 48.500,58.500 52.500,54.500 " />
<polygon stroke="black" stroke-width="1" fill="rgb(204, 204, 204)" fill-opacity="0" points="52.500,42.500 47.500,48.500 52.500,54.500 " />
<polygon stroke="black" stroke-width="1" fill="rgb(204, 204, 204)" fill-opacity="0" points="51.500,41.500 55.500,37.500 54.500,28.500 " />
<polygon stroke="black" stroke-width="1" fill="rgb(204, 204, 204)" fill-opacity="0" points="14.500,58.500 10.500,62.500 17.500,62.500 " />
<polygon stroke="black" stroke-width="1" fill="rgb(204, 204, 204)" fill-opacity="0" points="46.500,62.500 52.500,62.500 48.500,58.500 " />
<polygon stroke="black" stroke-width="1" fill="rgb(204, 204, 204)" fill-opacity="0" points="24.500,58.500 24.500,62.500 40.500,62.500 " />
<polygon stroke="black" stroke-width="1" fill="rgb(204, 204, 204)" fill-opacity="0" points="40.500,58.500 24.500,58.500 40.500,62.500 " />
<polygon stroke="black" stroke-width="1" fill="rgb(204, 204, 204)" fill-opacity="0" points="65.500,5.500 68.500,3.500 63.500,2.500 " />
<polygon stroke="black" stroke-width="1" fill="rgb(204, 204, 204)" fill-opacity="0" points="60.500,3.500 65.500,5.500 63.500,2.500 " />
<polygon stroke="black" stroke-width="1" fill="rgb(204, 204, 204)" fill-opacity="0" points="63.500,2.500 58.500,0.500 60.500,3.500 " />
<polygon stroke="black" stroke-width="1" fill="rgb(204, 204, 204)" fill-opacity="0" points="65.500,5.500 60.500,3.500 62.500,6.500 " />
<polygon stroke="black" stroke-width="1" fill="rgb(204, 204, 204)" fill-opacity="0" points="5.500,53.500 4.500,38.500 0.500,48.500 " />
<polygon stroke="black" stroke-width="1" fill="rgb(204, 204, 204)" fill-opacity="0" points="5.500,53.500 7.500,62.500 12.500,54.500 " />
<polygon stroke="black" stroke-width="1" fill="rgb(204, 204, 204)" fill-opacity="0" points="29.500,35.500 31.500,33.500 30.500,33.500 " />
<polygon stroke="black" stroke-width="1" fill="rgb(204, 204, 204)" fill-opacity="0" points="31.500,27.500 29.500,27.500 30.500,33.500 " />
<polygon stroke="black" stroke-width="1" fill="rgb(204, 204, 204)" fill-opacity="0" points="7.500,26.500 5.500,17.500 3.500,26.500 " />
<polygon stroke="black" stroke-width="1" fill="rgb(204, 204, 204)" fill-opacity="0" points="68.500,12.500 66.500,6.500 63.500,11.500 " />
<polygon stroke="black" stroke-width="1" fill="rgb(204, 204, 204)" fill-opacity="0" points="68.500,12.500 69.500,17.500 71.500,11.500 " />
<polygon stroke="black" stroke-width="1" fill="rgb(204, 204, 204)" fill-opacity="0" points="14.500,13.500 13.500,7.500 7.500,11.500 " />
<polygon stroke="black" stroke-width="1" fill="rgb(204, 204, 204)" fill-opacity="0" points="14.500,13.500 15.500,19.500 20.500,14.500 " />
<polygon stroke="black" stroke-width="1" fill="rgb(204, 204, 204)" fill-opacity="0" points="27.500,43.500 24.500,32.500 23.500,41.500 " />
<polygon stroke="black" stroke-width="1" fill="rgb(204, 204, 204)" fill-opacity="0" points="26.500,26.500 26.500,21.500 21.500,25.500 " />
<polygon stroke="black" stroke-width="1" fill="rgb(204, 204, 204)" fill-opacity="0" points="26.500,26.500 24.500,32.500 29.500,27.500 " />
<polygon stroke="black" stroke-width="1" fill="rgb(204, 204, 204)" fill-opacity="0" points="26.500,16.500 25.500,10.500 20.500,14.500 " />
<polygon stroke="black" stroke-width="1" fill="rgb(204, 204, 204)" fill-opacity="0" points="26.500,16.500 26.500,21.500 31.500,16.500 " />
<polygon stroke="black" stroke-width="1" fill="rgb(204, 204, 204)" fill-opacity="0" points="65.500,5.500 66.500,6.500 69.500,4.500 " />
<polygon stroke="black" stroke-width="1" fill="rgb(204, 204, 204)" fill-opacity="0" points="25.500,10.500 31.500,6.500 26.500,4.500 " />
<polygon stroke="black" stroke-width="1" fill="rgb(204, 204, 204)" fill-opacity="0" points="23.500,41.500 12.500,33.500 17.500,44.500 " />
<polygon stroke="black" stroke-width="1" fill="rgb(204, 204, 204)" fill-opacity="0" points="12.500,33.500 14.500,24.500 7.500,26.500 " />
<polygon stroke="black" stroke-width="1" fill="rgb(204, 204, 204)" fill-opacity="0" points="21.500,25.500 15.500,19.500 14.500,24.500 " />
<polygon stroke="black" stroke-width="1" fill="rgb(204, 204, 204)" fill-opacity="0" points="15.500,47.500 15.500,49.500 25.500,59.500 " />
<polygon stroke="black" stroke-width="1" fill="rgb(204, 204, 204)" fill-opacity="0" points="13.500,5.500 6.500,5.500 13.500,7.500 " />
<polygon stroke="black" stroke-width="1" fill="rgb(204, 204, 204)" fill-opacity="0" points="13.500,5.500 26.500,4.500 19.500,1.500 " />
<polygon stroke="black" stroke-width="1" fill="rgb(204, 204, 204)" fill-opacity="0" points="30.500,61.500 28.500,60.500 27.500,58.500 " />
<polygon stroke="black" stroke-width="1" fill="rgb(204, 204, 204)" fill-opacity="0" points="0.500,48.500 4.500,38.500 0.500,32.500 " />
<polygon stroke="black" stroke-width="1" fill="rgb(204, 204, 204)" fill-opacity="0" points="0.500,62.500 5.500,53.500 0.500,48.500 " />
<polygon stroke="black" stroke-width="1" fill="rgb(204, 204, 204)" fill-opacity="0" points="5.500,53.500 8.500,42.500 4.500,38.500 " />
<polygon stroke="black" stroke-width="1" fill="rgb(204, 204, 204)" fill-opacity="0" points="12.500,54.500 7.500,62.500 15.500,62.500 " />
<polygon stroke="black" stroke-width="1" fill="rgb(204, 204, 204)" fill-opacity="0" points="8.500,42.500 5.500,53.500 12.500,54.500 " />
<polygon stroke="black" stroke-width="1" fill="rgb(204, 204, 204)" fill-opacity="0" points="5.500,53.500 0.500,62.500 7.500,62.500 " />
<polygon stroke="black" stroke-width="1" fill="rgb(204, 204, 204)" fill-opacity="0" points="3.500,26.500 4.500,38.500 6.500,35.500 " />
<polygon stroke="black" stroke-width="1" fill="rgb(204, 204, 204)" fill-opacity="0" points="27.500,33.500 29.500,35.500 30.500,33.500 " />
<polygon stroke="black" stroke-width="1" fill="rgb(204, 204, 204)" fill-opacity="0" points="30.500,33.500 29.500,27.500 27.500,33.500 " />
<polygon stroke="black" stroke-width="1" fill="rgb(204, 204, 204)" fill-opacity="0" points="31.500,33.500 31.500,27.500 30.500,33.500 " />
<polygon stroke="black" stroke-width="1" fill="rgb(204, 204, 204)" fill-opacity="0" points="31.500,27.500 31.500,21.500 29.500,27.500 " />
<polygon stroke="black" stroke-width="1" fill="rgb(204, 204, 204)" fill-opacity="0" points="10.500,62.500 14.500,58.500 10.500,54.500 " />
<polygon stroke="black" stroke-width="1" fill="rgb(204, 204, 204)" fill-opacity="0" points="16.500,49.500 14.500,58.500 20.500,53.500 " />
<polygon stroke="black" stroke-width="1" fill="rgb(204, 204, 204)" fill-opacity="0" points="3.500,26.500 5.500,17.500 2.500,18.500 " />
<polygon stroke="black" stroke-width="1" fill="rgb(204, 204, 204)" fill-opacity="0" points="6.500,35.500 7.500,26.500 3.500,26.500 " />
<polygon stroke="black" stroke-width="1" fill="rgb(204, 204, 204)" fill-opacity="0" points="7.500,26.500 8.500,17.500 5.500,17.500 " />
<polygon stroke="black" stroke-width="1" fill="rgb(204, 204, 204)" fill-opacity="0" points="63.500,11.500 66.500,6.500 62.500,6.500 " />
<polygon stroke="black" stroke-width="1" fill="rgb(204, 204, 204)" fill-opacity="0" points="66.500,18.500 68.500,12.500 63.500,11.500 " />
<polygon stroke="black" stroke-width="1" fill="rgb(204, 204, 204)" fill-opacity="0" points="68.500,12.500 71.500,6.500 66.500,6.500 " />
<polygon stroke="black" stroke-width="1" fill="rgb(204, 204, 204)" fill-opacity="0" points="71.500,11.500 69.500,17.500 72.500,17.500 " />
<polygon stroke="black" stroke-width="1" fill="rgb(204, 204, 204)" fill-opacity="0" points="71.500,6.500 68.500,12.500 71.500,11.500 " />
<polygon stroke="black" stroke-width="1" fill="rgb(204, 204, 204)" fill-opacity="0" points="68.500,12.500 66.500,18.500 69.500,17.500 " />
<polygon stroke="black" stroke-width="1" fill="rgb(204, 204, 204)" fill-opacity="0" points="7.500,11.500 13.500,7.500 7.500,6.500 " />
<polygon stroke="black" stroke-width="1" fill="rgb(204, 204, 204)" fill-opacity="0" points="8.500,17.500 14.500,13.500 7.500,11.500 " />
<polygon stroke="black" stroke-width="1" fill="rgb(204, 204, 204)" fill-opacity="0" points="14.500,13.500 19.500,8.500 13.500,7.500 " />
<polygon stroke="black" stroke-width="1" fill="rgb(204, 204, 204)" fill-opacity="0" points="20.500,14.500 15.500,19.500 21.500,21.500 " />
<polygon stroke="black" stroke-width="1" fill="rgb(204, 204, 204)" fill-opacity="0" points="19.500,8.500 14.500,13.500 20.500,14.500 " />
<polygon stroke="black" stroke-width="1" fill="rgb(204, 204, 204)" fill-opacity="0" points="14.500,13.500 8.500,17.500 15.500,19.500 " />
<polygon stroke="black" stroke-width="1" fill="rgb(204, 204, 204)" fill-opacity="0" points="23.500,41.500 24.500,32.500 21.500,31.500 " />
<polygon stroke="black" stroke-width="1" fill="rgb(204, 204, 204)" fill-opacity="0" points="25.500,51.500 27.500,43.500 23.500,41.500 " />
<polygon stroke="black" stroke-width="1" fill="rgb(204, 204, 204)" fill-opacity="0" points="27.500,43.500 27.500,33.500 24.500,32.500 " />
<polygon stroke="black" stroke-width="1" fill="rgb(204, 204, 204)" fill-opacity="0" points="29.500,51.500 31.500,43.500 27.500,43.500 " />
<polygon stroke="black" stroke-width="1" fill="rgb(204, 204, 204)" fill-opacity="0" points="29.500,35.500 27.500,33.500 27.500,43.500 " />
<polygon stroke="black" stroke-width="1" fill="rgb(204, 204, 204)" fill-opacity="0" points="31.500,43.500 29.500,35.500 27.500,43.500 " />
<polygon stroke="black" stroke-width="1" fill="rgb(204, 204, 204)" fill-opacity="0" points="27.500,43.500 25.500,51.500 29.500,51.500 " />
<polygon stroke="black" stroke-width="1" fill="rgb(204, 204, 204)" fill-opacity="0" points="21.500,25.500 26.500,21.500 21.500,21.500 " />
<polygon stroke="black" stroke-width="1" fill="rgb(204, 204, 204)" fill-opacity="0" points="21.500,31.500 26.500,26.500 21.500,25.500 " />
<polygon stroke="black" stroke-width="1" fill="rgb(204, 204, 204)" fill-opacity="0" points="26.500,26.500 31.500,21.500 26.500,21.500 " />
<polygon stroke="black" stroke-width="1" fill="rgb(204, 204, 204)" fill-opacity="0" points="29.500,27.500 24.500,32.500 27.500,33.500 " />
<polygon stroke="black" stroke-width="1" fill="rgb(204, 204, 204)" fill-opacity="0" points="31.500,21.500 26.500,26.500 29.500,27.500 " />
<polygon stroke="black" stroke-width="1" fill="rgb(204, 204, 204)" fill-opacity="0" points="26.500,26.500 21.500,31.500 24.500,32.500 " />
<polygon stroke="black" stroke-width="1" fill="rgb(204, 204, 204)" fill-opacity="0" points="20.500,14.500 25.500,10.500 19.500,8.500 " />
<polygon stroke="black" stroke-width="1" fill="rgb(204, 204, 204)" fill-opacity="0" points="21.500,21.500 26.500,16.500 20.500,14.500 " />
<polygon stroke="black" stroke-width="1" fill="rgb(204, 204, 204)" fill-opacity="0" points="26.500,16.500 31.500,11.500 25.500,10.500 " />
<polygon stroke="black" stroke-width="1" fill="rgb(204, 204, 204)" fill-opacity="0" points="31.500,16.500 26.500,21.500 31.500,21.500 " />
<polygon stroke="black" stroke-width="1" fill="rgb(204, 204, 204)" fill-opacity="0" points="31.500,11.500 26.500,16.500 31.500,16.500 " />
<polygon stroke="black" stroke-width="1" fill="rgb(204, 204, 204)" fill-opacity="0" points="26.500,16.500 21.500,21.500 26.500,21.500 " />
<polygon stroke="black" stroke-width="1" fill="rgb(204, 204, 204)" fill-opacity="0" points="69.500,4.500 66.500,6.500 71.500,6.500 " />
<polygon stroke="black" stroke-width="1" fill="rgb(204, 204, 204)" fill-opacity="0" points="68.500,3.500 65.500,5.500 69.500,4.500 " />
<polygon stroke="black" stroke-width="1" fill="rgb(204, 204, 204)" fill-opacity="0" points="65.500,5.500 62.500,6.500 66.500,6.500 " />
<polygon stroke="black" stroke-width="1" fill="rgb(204, 204, 204)" fill-opacity="0" points="26.500,4.500 31.500,6.500 31.500,0.500 " />
<polygon stroke="black" stroke-width="1" fill="rgb(204, 204, 204)" fill-opacity="0" points="19.500,8.500 25.500,10.500 26.500,4.500 " />
<polygon stroke="black" stroke-width="1" fill="rgb(204, 204, 204)" fill-opacity="0" points="25.500,10.500 31.500,11.500 31.500,6.500 " />
<polygon stroke="black" stroke-width="1" fill="rgb(204, 204, 204)" fill-opacity="0" points="17.500,44.500 12.500,33.500 8.500,37.500 " />
<polygon stroke="black" stroke-width="1" fill="rgb(204, 204, 204)" fill-opacity="0" points="25.500,51.500 23.500,41.500 17.500,44.500 " />
<polygon stroke="black" stroke-width="1" fill="rgb(204, 204, 204)" fill-opacity="0" points="23.500,41.500 21.500,31.500 12.500,33.500 " />
<polygon stroke="black" stroke-width="1" fill="rgb(204, 204, 204)" fill-opacity="0" points="7.500,26.500 14.500,24.500 8.500,17.500 " />
<polygon stroke="black" stroke-width="1" fill="rgb(204, 204, 204)" fill-opacity="0" points="8.500,37.500 12.500,33.500 7.500,26.500 " />
<polygon stroke="black" stroke-width="1" fill="rgb(204, 204, 204)" fill-opacity="0" points="12.500,33.500 21.500,31.500 14.500,24.500 " />
<polygon stroke="black" stroke-width="1" fill="rgb(204, 204, 204)" fill-opacity="0" points="14.500,24.500 15.500,19.500 8.500,17.500 " />
<polygon stroke="black" stroke-width="1" fill="rgb(204, 204, 204)" fill-opacity="0" points="21.500,31.500 21.500,25.500 14.500,24.500 " />
<polygon stroke="black" stroke-width="1" fill="rgb(204, 204, 204)" fill-opacity="0" points="21.500,25.500 21.500,21.500 15.500,19.500 " />
<polygon stroke="black" stroke-width="1" fill="rgb(204, 204, 204)" fill-opacity="0" points="24.500,54.500 15.500,47.500 25.500,59.500 " />
<polygon stroke="black" stroke-width="1" fill="rgb(204, 204, 204)" fill-opacity="0" points="15.500,47.500 5.500,38.500 15.500,49.500 " />
<polygon stroke="black" stroke-width="1" fill="rgb(204, 204, 204)" fill-opacity="0" points="24.500,62.500 24.500,58.500 17.500,62.500 " />
<polygon stroke="black" stroke-width="1" fill="rgb(204, 204, 204)" fill-opacity="0" points="13.500,7.500 6.500,5.500 7.500,6.500 " />
<polygon stroke="black" stroke-width="1" fill="rgb(204, 204, 204)" fill-opacity="0" points="19.500,8.500 13.500,5.500 13.500,7.500 " />
<polygon stroke="black" stroke-width="1" fill="rgb(204, 204, 204)" fill-opacity="0" points="13.500,5.500 4.500,3.500 6.500,5.500 " />
<polygon stroke="black" stroke-width="1" fill="rgb(204, 204, 204)" fill-opacity="0" points="19.500,1.500 26.500,4.500 31.500,0.500 " />
<polygon stroke="black" stroke-width="1" fill="rgb(204, 204, 204)" fill-opacity="0" points="4.500,3.500 13.500,5.500 19.500,1.500 " />
<polygon stroke="black" stroke-width="1" fill="rgb(204, 204, 204)" fill-opacity="0" points="13.500,5.500 19.500,8.500 26.500,4.500 " />
<polygon stroke="black" stroke-width="1" fill="rgb(204, 204, 204)" fill-opacity="0" points="24.500,54.500 25.500,59.500 27.500,54.500 " />
<polygon stroke="black" stroke-width="1" fill="rgb(204, 204, 204)" fill-opacity="0" points="28.500,51.500 29.500,51.500 25.500,51.500 " />
<polygon stroke="black" stroke-width="1" fill="rgb(204, 204, 204)" fill-opacity="0" points="0.500,25.500 3.500,26.500 2.500,18.500 " />
<polygon stroke="black" stroke-width="1" fill="rgb(204, 204, 204)" fill-opacity="0" points="66.500,18.500 63.500,18.500 63.500,24.500 " />
<polygon stroke="black" stroke-width="1" fill="rgb(204, 204, 204)" fill-opacity="0" points="63.500,18.500 66.500,18.500 63.500,11.500 " />
<polygon stroke="black" stroke-width="1" fill="rgb(204, 204, 204)" fill-opacity="0" points="64.500,48.500 59.500,38.500 58.500,53.500 " />
<polygon stroke="black" stroke-width="1" fill="rgb(204, 204, 204)" fill-opacity="0" points="50.500,54.500 55.500,62.500 58.500,53.500 " />
<polygon stroke="black" stroke-width="1" fill="rgb(204, 204, 204)" fill-opacity="0" points="32.500,33.500 31.500,33.500 33.500,35.500 " />
<polygon stroke="black" stroke-width="1" fill="rgb(204, 204, 204)" fill-opacity="0" points="32.500,33.500 33.500,27.500 31.500,27.500 " />
<polygon stroke="black" stroke-width="1" fill="rgb(204, 204, 204)" fill-opacity="0" points="58.500,27.500 57.500,18.500 54.500,28.500 " />
<polygon stroke="black" stroke-width="1" fill="rgb(204, 204, 204)" fill-opacity="0" points="61.500,12.500 59.500,6.500 58.500,12.500 " />
<polygon stroke="black" stroke-width="1" fill="rgb(204, 204, 204)" fill-opacity="0" points="55.500,11.500 57.500,18.500 58.500,12.500 " />
<polygon stroke="black" stroke-width="1" fill="rgb(204, 204, 204)" fill-opacity="0" points="55.500,11.500 50.500,7.500 48.500,13.500 " />
<polygon stroke="black" stroke-width="1" fill="rgb(204, 204, 204)" fill-opacity="0" points="42.500,14.500 47.500,19.500 48.500,13.500 " />
<polygon stroke="black" stroke-width="1" fill="rgb(204, 204, 204)" fill-opacity="0" points="40.500,41.500 38.500,32.500 35.500,43.500 " />
<polygon stroke="black" stroke-width="1" fill="rgb(204, 204, 204)" fill-opacity="0" points="42.500,25.500 36.500,21.500 36.500,26.500 " />
<polygon stroke="black" stroke-width="1" fill="rgb(204, 204, 204)" fill-opacity="0" points="33.500,27.500 38.500,32.500 36.500,26.500 " />
<polygon stroke="black" stroke-width="1" fill="rgb(204, 204, 204)" fill-opacity="0" points="42.500,14.500 37.500,10.500 36.500,16.500 " />
<polygon stroke="black" stroke-width="1" fill="rgb(204, 204, 204)" fill-opacity="0" points="31.500,16.500 36.500,21.500 36.500,16.500 " />
<polygon stroke="black" stroke-width="1" fill="rgb(204, 204, 204)" fill-opacity="0" points="57.500,3.500 59.500,6.500 60.500,3.500 " />
<polygon stroke="black" stroke-width="1" fill="rgb(204, 204, 204)" fill-opacity="0" points="36.500,4.500 31.500,6.500 37.500,10.500 " />
<polygon stroke="black" stroke-width="1" fill="rgb(204, 204, 204)" fill-opacity="0" points="43.500,46.500 48.500,35.500 40.500,41.500 " />
<polygon stroke="black" stroke-width="1" fill="rgb(204, 204, 204)" fill-opacity="0" points="54.500,28.500 48.500,24.500 48.500,35.500 " />
<polygon stroke="black" stroke-width="1" fill="rgb(204, 204, 204)" fill-opacity="0" points="48.500,24.500 47.500,19.500 42.500,25.500 " />
<polygon stroke="black" stroke-width="1" fill="rgb(204, 204, 204)" fill-opacity="0" points="36.500,59.500 46.500,49.500 46.500,47.500 " />
<polygon stroke="black" stroke-width="1" fill="rgb(204, 204, 204)" fill-opacity="0" points="50.500,7.500 57.500,3.500 49.500,4.500 " />
<polygon stroke="black" stroke-width="1" fill="rgb(204, 204, 204)" fill-opacity="0" points="78.500,0.500 36.500,4.500 49.500,4.500 " />
<polygon stroke="black" stroke-width="1" fill="rgb(204, 204, 204)" fill-opacity="0" points="32.500,58.500 32.500,60.500 30.500,61.500 " />
<polygon stroke="black" stroke-width="1" fill="rgb(204, 204, 204)" fill-opacity="0" points="64.500,32.500 59.500,38.500 64.500,48.500 " />
<polygon stroke="black" stroke-width="1" fill="rgb(204, 204, 204)" fill-opacity="0" points="64.500,48.500 58.500,53.500 64.500,62.500 " />
<polygon stroke="black" stroke-width="1" fill="rgb(204, 204, 204)" fill-opacity="0" points="59.500,38.500 54.500,42.500 58.500,53.500 " />
<polygon stroke="black" stroke-width="1" fill="rgb(204, 204, 204)" fill-opacity="0" points="47.500,62.500 55.500,62.500 50.500,54.500 " />
<polygon stroke="black" stroke-width="1" fill="rgb(204, 204, 204)" fill-opacity="0" points="50.500,54.500 58.500,53.500 54.500,42.500 " />
<polygon stroke="black" stroke-width="1" fill="rgb(204, 204, 204)" fill-opacity="0" points="55.500,62.500 64.500,62.500 58.500,53.500 " />
<polygon stroke="black" stroke-width="1" fill="rgb(204, 204, 204)" fill-opacity="0" points="55.500,37.500 59.500,35.500 58.500,27.500 " />
<polygon stroke="black" stroke-width="1" fill="rgb(204, 204, 204)" fill-opacity="0" points="33.500,35.500 29.500,35.500 31.500,43.500 " />
<polygon stroke="black" stroke-width="1" fill="rgb(204, 204, 204)" fill-opacity="0" points="32.500,33.500 33.500,35.500 35.500,33.500 " />
<polygon stroke="black" stroke-width="1" fill="rgb(204, 204, 204)" fill-opacity="0" points="29.500,35.500 33.500,35.500 31.500,33.500 " />
<polygon stroke="black" stroke-width="1" fill="rgb(204, 204, 204)" fill-opacity="0" points="35.500,33.500 33.500,27.500 32.500,33.500 " />
<polygon stroke="black" stroke-width="1" fill="rgb(204, 204, 204)" fill-opacity="0" points="32.500,33.500 31.500,27.500 31.500,33.500 " />
<polygon stroke="black" stroke-width="1" fill="rgb(204, 204, 204)" fill-opacity="0" points="33.500,27.500 31.500,21.500 31.500,27.500 " />
<polygon stroke="black" stroke-width="1" fill="rgb(204, 204, 204)" fill-opacity="0" points="52.500,54.500 48.500,58.500 52.500,62.500 " />
<polygon stroke="black" stroke-width="1" fill="rgb(204, 204, 204)" fill-opacity="0" points="44.500,52.500 48.500,58.500 47.500,48.500 " />
<polygon stroke="black" stroke-width="1" fill="rgb(204, 204, 204)" fill-opacity="0" points="60.500,19.500 57.500,18.500 58.500,27.500 " />
<polygon stroke="black" stroke-width="1" fill="rgb(204, 204, 204)" fill-opacity="0" points="58.500,27.500 54.500,28.500 55.500,37.500 " />
<polygon stroke="black" stroke-width="1" fill="rgb(204, 204, 204)" fill-opacity="0" points="57.500,18.500 54.500,17.500 54.500,28.500 " />
<polygon stroke="black" stroke-width="1" fill="rgb(204, 204, 204)" fill-opacity="0" points="62.500,6.500 59.500,6.500 61.500,12.500 " />
<polygon stroke="black" stroke-width="1" fill="rgb(204, 204, 204)" fill-opacity="0" points="61.500,12.500 58.500,12.500 60.500,19.500 " />
<polygon stroke="black" stroke-width="1" fill="rgb(204, 204, 204)" fill-opacity="0" points="59.500,6.500 56.500,6.500 58.500,12.500 " />
<polygon stroke="black" stroke-width="1" fill="rgb(204, 204, 204)" fill-opacity="0" points="54.500,17.500 57.500,18.500 55.500,11.500 " />
<polygon stroke="black" stroke-width="1" fill="rgb(204, 204, 204)" fill-opacity="0" points="55.500,11.500 58.500,12.500 56.500,6.500 " />
<polygon stroke="black" stroke-width="1" fill="rgb(204, 204, 204)" fill-opacity="0" points="57.500,18.500 60.500,19.500 58.500,12.500 " />
<polygon stroke="black" stroke-width="1" fill="rgb(204, 204, 204)" fill-opacity="0" points="56.500,6.500 50.500,7.500 55.500,11.500 " />
<polygon stroke="black" stroke-width="1" fill="rgb(204, 204, 204)" fill-opacity="0" points="55.500,11.500 48.500,13.500 54.500,17.500 " />
<polygon stroke="black" stroke-width="1" fill="rgb(204, 204, 204)" fill-opacity="0" points="50.500,7.500 43.500,8.500 48.500,13.500 " />
<polygon stroke="black" stroke-width="1" fill="rgb(204, 204, 204)" fill-opacity="0" points="41.500,21.500 47.500,19.500 42.500,14.500 " />
<polygon stroke="black" stroke-width="1" fill="rgb(204, 204, 204)" fill-opacity="0" points="42.500,14.500 48.500,13.500 43.500,8.500 " />
<polygon stroke="black" stroke-width="1" fill="rgb(204, 204, 204)" fill-opacity="0" points="47.500,19.500 54.500,17.500 48.500,13.500 " />
<polygon stroke="black" stroke-width="1" fill="rgb(204, 204, 204)" fill-opacity="0" points="42.500,31.500 38.500,32.500 40.500,41.500 " />
<polygon stroke="black" stroke-width="1" fill="rgb(204, 204, 204)" fill-opacity="0" points="40.500,41.500 35.500,43.500 37.500,51.500 " />
<polygon stroke="black" stroke-width="1" fill="rgb(204, 204, 204)" fill-opacity="0" points="38.500,32.500 35.500,33.500 35.500,43.500 " />
<polygon stroke="black" stroke-width="1" fill="rgb(204, 204, 204)" fill-opacity="0" points="29.500,51.500 33.500,51.500 31.500,43.500 " />
<polygon stroke="black" stroke-width="1" fill="rgb(204, 204, 204)" fill-opacity="0" points="31.500,43.500 33.500,51.500 35.500,43.500 " />
<polygon stroke="black" stroke-width="1" fill="rgb(204, 204, 204)" fill-opacity="0" points="33.500,35.500 31.500,43.500 35.500,43.500 " />
<polygon stroke="black" stroke-width="1" fill="rgb(204, 204, 204)" fill-opacity="0" points="35.500,33.500 33.500,35.500 35.500,43.500 " />
<polygon stroke="black" stroke-width="1" fill="rgb(204, 204, 204)" fill-opacity="0" points="33.500,51.500 37.500,51.500 35.500,43.500 " />
<polygon stroke="black" stroke-width="1" fill="rgb(204, 204, 204)" fill-opacity="0" points="41.500,21.500 36.500,21.500 42.500,25.500 " />
<polygon stroke="black" stroke-width="1" fill="rgb(204, 204, 204)" fill-opacity="0" points="42.500,25.500 36.500,26.500 42.500,31.500 " />
<polygon stroke="black" stroke-width="1" fill="rgb(204, 204, 204)" fill-opacity="0" points="36.500,21.500 31.500,21.500 36.500,26.500 " />
<polygon stroke="black" stroke-width="1" fill="rgb(204, 204, 204)" fill-opacity="0" points="35.500,33.500 38.500,32.500 33.500,27.500 " />
<polygon stroke="black" stroke-width="1" fill="rgb(204, 204, 204)" fill-opacity="0" points="33.500,27.500 36.500,26.500 31.500,21.500 " />
<polygon stroke="black" stroke-width="1" fill="rgb(204, 204, 204)" fill-opacity="0" points="38.500,32.500 42.500,31.500 36.500,26.500 " />
<polygon stroke="black" stroke-width="1" fill="rgb(204, 204, 204)" fill-opacity="0" points="43.500,8.500 37.500,10.500 42.500,14.500 " />
<polygon stroke="black" stroke-width="1" fill="rgb(204, 204, 204)" fill-opacity="0" points="42.500,14.500 36.500,16.500 41.500,21.500 " />
<polygon stroke="black" stroke-width="1" fill="rgb(204, 204, 204)" fill-opacity="0" points="37.500,10.500 31.500,11.500 36.500,16.500 " />
<polygon stroke="black" stroke-width="1" fill="rgb(204, 204, 204)" fill-opacity="0" points="31.500,21.500 36.500,21.500 31.500,16.500 " />
<polygon stroke="black" stroke-width="1" fill="rgb(204, 204, 204)" fill-opacity="0" points="31.500,16.500 36.500,16.500 31.500,11.500 " />
<polygon stroke="black" stroke-width="1" fill="rgb(204, 204, 204)" fill-opacity="0" points="36.500,21.500 41.500,21.500 36.500,16.500 " />
<polygon stroke="black" stroke-width="1" fill="rgb(204, 204, 204)" fill-opacity="0" points="56.500,6.500 59.500,6.500 57.500,3.500 " />
<polygon stroke="black" stroke-width="1" fill="rgb(204, 204, 204)" fill-opacity="0" points="57.500,3.500 60.500,3.500 58.500,0.500 " />
<polygon stroke="black" stroke-width="1" fill="rgb(204, 204, 204)" fill-opacity="0" points="59.500,6.500 62.500,6.500 60.500,3.500 " />
<polygon stroke="black" stroke-width="1" fill="rgb(204, 204, 204)" fill-opacity="0" points="31.500,0.500 31.500,6.500 36.500,4.500 " />
<polygon stroke="black" stroke-width="1" fill="rgb(204, 204, 204)" fill-opacity="0" points="36.500,4.500 37.500,10.500 43.500,8.500 " />
<polygon stroke="black" stroke-width="1" fill="rgb(204, 204, 204)" fill-opacity="0" points="31.500,6.500 31.500,11.500 37.500,10.500 " />
<polygon stroke="black" stroke-width="1" fill="rgb(204, 204, 204)" fill-opacity="0" points="51.500,41.500 48.500,35.500 43.500,46.500 " />
<polygon stroke="black" stroke-width="1" fill="rgb(204, 204, 204)" fill-opacity="0" points="43.500,46.500 40.500,41.500 37.500,51.500 " />
<polygon stroke="black" stroke-width="1" fill="rgb(204, 204, 204)" fill-opacity="0" points="48.500,35.500 42.500,31.500 40.500,41.500 " />
<polygon stroke="black" stroke-width="1" fill="rgb(204, 204, 204)" fill-opacity="0" points="54.500,17.500 48.500,24.500 54.500,28.500 " />
<polygon stroke="black" stroke-width="1" fill="rgb(204, 204, 204)" fill-opacity="0" points="54.500,28.500 48.500,35.500 51.500,41.500 " />
<polygon stroke="black" stroke-width="1" fill="rgb(204, 204, 204)" fill-opacity="0" points="48.500,24.500 42.500,31.500 48.500,35.500 " />
<polygon stroke="black" stroke-width="1" fill="rgb(204, 204, 204)" fill-opacity="0" points="54.500,17.500 47.500,19.500 48.500,24.500 " />
<polygon stroke="black" stroke-width="1" fill="rgb(204, 204, 204)" fill-opacity="0" points="48.500,24.500 42.500,25.500 42.500,31.500 " />
<polygon stroke="black" stroke-width="1" fill="rgb(204, 204, 204)" fill-opacity="0" points="47.500,19.500 41.500,21.500 42.500,25.500 " />
<polygon stroke="black" stroke-width="1" fill="rgb(204, 204, 204)" fill-opacity="0" points="36.500,59.500 46.500,47.500 37.500,55.500 " />
<polygon stroke="black" stroke-width="1" fill="rgb(204, 204, 204)" fill-opacity="0" points="46.500,49.500 56.500,38.500 46.500,47.500 " />
<polygon stroke="black" stroke-width="1" fill="rgb(204, 204, 204)" fill-opacity="0" points="46.500,62.500 40.500,58.500 40.500,62.500 " />
<polygon stroke="black" stroke-width="1" fill="rgb(204, 204, 204)" fill-opacity="0" points="56.500,6.500 57.500,3.500 50.500,7.500 " />
<polygon stroke="black" stroke-width="1" fill="rgb(204, 204, 204)" fill-opacity="0" points="50.500,7.500 49.500,4.500 43.500,8.500 " />
<polygon stroke="black" stroke-width="1" fill="rgb(204, 204, 204)" fill-opacity="0" points="57.500,3.500 58.500,0.500 49.500,4.500 " />
<polygon stroke="black" stroke-width="1" fill="rgb(204, 204, 204)" fill-opacity="0" points="95.500,0.500 36.500,4.500 78.500,0.500 " />
<polygon stroke="black" stroke-width="1" fill="rgb(204, 204, 204)" fill-opacity="0" points="78.500,0.500 49.500,4.500 58.500,0.500 " />
<polygon stroke="black" stroke-width="1" fill="rgb(204, 204, 204)" fill-opacity="0" points="36.500,4.500 43.500,8.500 49.500,4.500 " />
<polygon stroke="black" stroke-width="1" fill="rgb(204, 204, 204)" fill-opacity="0" points="34.500,55.500 36.500,59.500 37.500,55.500 " />
<polygon stroke="black" stroke-width="1" fill="rgb(204, 204, 204)" fill-opacity="0" points="37.500,51.500 33.500,51.500 34.500,51.500 " />
<polygon stroke="black" stroke-width="1" fill="rgb(204, 204, 204)" fill-opacity="0" points="32.500,58.500 30.500,61.500 27.500,58.500 " />
<polygon stroke="black" stroke-width="1" fill="rgb(204, 204, 204)" fill-opacity="0" points="33.500,51.500 29.500,51.500 31.500,52.500 " />
<polygon stroke="black" stroke-width="1" fill="rgb(204, 204, 204)" fill-opacity="0" points="78.500,0.500 83.500,1.500 95.500,0.500 " />
<polygon stroke="black" stroke-width="1" fill="rgb(204, 204, 204)" fill-opacity="0" points="58.500,27.500 62.500,26.500 60.500,19.500 " />
<polygon stroke="black" stroke-width="1" fill="rgb(204, 204, 204)" fill-opacity="0" points="63.500,24.500 63.500,18.500 61.500,18.500 " />
<polygon stroke="black" stroke-width="1" fill="rgb(204, 204, 204)" fill-opacity="0" points="63.500,11.500 61.500,12.500 63.500,18.500 " />
<polygon stroke="black" stroke-width="1" fill="rgb(204, 204, 204)" fill-opacity="0" points="60.500,19.500 63.500,18.500 61.500,12.500 " />
<polygon stroke="black" stroke-width="1" fill="rgb(204, 204, 204)" fill-opacity="0" points="61.500,12.500 63.500,11.500 62.500,6.500 " />

</svg>
